<?xml version="1.0" encoding="iso-8859-1"?>
<!-- Generator: Adobe Illustrator 16.0.0, SVG Export Plug-In . SVG Version: 6.00 Build 0)  -->
<!DOCTYPE svg PUBLIC "-//W3C//DTD SVG 1.1//EN" "http://www.w3.org/Graphics/SVG/1.1/DTD/svg11.dtd">
<svg version="1.1" id="Capa_1" xmlns="http://www.w3.org/2000/svg" xmlns:xlink="http://www.w3.org/1999/xlink" x="0px" y="0px"
	 width="198.08px" height="198.08px" viewBox="0 0 198.08 198.08" style="enable-background:new 0 0 198.08 198.08;"
	 xml:space="preserve">
<g>
	<g>
		<ellipse cx="42.306" cy="16.558" rx="16.777" ry="16.558"/>
		<path d="M66.419,35.88H17.99c-4.136,0-6.838,3.027-6.838,7.162V57.63v44.729c0,3.305,2.347,5.982,5.651,5.982
			c2.619,0,4.32-1.08,5.316-3.01v83.773c0,4.957,4.019,8.974,8.975,8.974c4.956,0,8.973-4.017,8.973-8.974V121.63h4.986v67.476
			c0,4.957,4.018,8.974,8.975,8.974c4.955,0,8.972-4.017,8.972-8.974v-83.773c0.997,1.796,2.866,3.01,5.087,3.01
			c3.305,0,5.883-2.679,5.883-5.982V43.042C73.97,38.594,70.454,35.88,66.419,35.88z"/>
		<ellipse cx="134.839" cy="16.41" rx="16.627" ry="16.41"/>
		<path d="M154.73,49.479c0,0,15.547,29.182,20.625,39.023c1.197,2.321,3.513,4.803,5.871,4.885
			c1.519,0.053,3.049-0.578,4.206-1.738c2.314-2.313,1.648-5.541-0.002-8.382c-6.639-11.43-19.615-34.479-26.159-46.099
			c-0.703-1.248-1.873-2.285-4.431-2.285c-1.194,0-30.243,0-40.432,0c-1.594,0-3.08,0.692-3.822,1.999
			c-6.584,11.587-19.881,35.141-26.357,46.342c-1.638,2.834-2.315,6.088,0,8.405c1.157,1.156,2.675,1.726,4.19,1.747
			c2.001,0.028,4.102-1.497,5.399-3.976c5.761-11.005,21.028-39.922,21.028-39.922V69.37l-25.608,43.132
			c-0.866,1.46-0.883,3.271-0.043,4.747c0.84,1.476,2.406,2.388,4.104,2.388h21.548v69.549c0,4.912,3.97,8.895,8.882,8.895
			c4.913,0,9.066-3.98,9.066-8.895v-69.549h3.988v69.549c0,4.912,4.152,8.895,9.065,8.895c4.911,0,8.88-3.98,8.88-8.895v-69.549
			h21.624c1.699,0,3.269-0.914,4.106-2.393s0.818-3.293-0.053-4.753l-25.508-42.71h-0.171V49.479H154.73z"/>
	</g>
</g>
<g>
</g>
<g>
</g>
<g>
</g>
<g>
</g>
<g>
</g>
<g>
</g>
<g>
</g>
<g>
</g>
<g>
</g>
<g>
</g>
<g>
</g>
<g>
</g>
<g>
</g>
<g>
</g>
<g>
</g>
</svg>
