<svg width="32" height="32" viewBox="0 0 32 32" fill="none" xmlns="http://www.w3.org/2000/svg">
<path fill-rule="evenodd" clip-rule="evenodd" d="M16 32C24.8369 32 32 24.8365 32 16C32 7.16345 24.8369 0 16 0C7.16309 0 0 7.16345 0 16C0 24.8365 7.16309 32 16 32ZM10.2168 15.8293L10.207 15.8401C9.93262 16.1293 9.93262 16.6112 10.1973 16.9111C10.8311 17.5991 11.4551 18.2819 12.0703 18.9553C12.6914 19.6343 13.3037 20.3038 13.9092 20.9598C13.958 21.0134 14.0361 21.0134 14.085 20.9598L22.8018 11.4272C23.0664 11.1381 23.0664 10.6667 22.8018 10.3776L22.665 10.2169C22.4004 9.92773 21.959 9.92773 21.6953 10.2169L13.9189 18.7213C13.8799 18.7642 13.8311 18.7642 13.791 18.7213C12.9297 17.7681 12.0479 16.7933 11.1768 15.8401C10.9121 15.5509 10.4814 15.5509 10.2168 15.8293Z" fill="#F9FEF7"/>
</svg>
