<svg width="47" height="30" viewBox="0 0 47 30" fill="none" xmlns="http://www.w3.org/2000/svg">
<path d="M24.7257 3.93531C23.6153 5.11978 22.5789 6.15618 21.5425 7.19259C14.3617 3.56517 8.21726 5.11978 5.7743 11.2642C3.55343 16.5203 6.36653 22.5906 11.8447 24.4414C17.5449 26.3661 23.1711 23.1088 24.8738 16.6683C23.1711 16.6683 21.6165 16.6683 19.9879 16.6683C18.4333 16.6683 16.8787 16.6683 15.176 16.6683C15.176 14.9656 15.176 13.4851 15.176 11.7824C15.6942 11.7084 16.1384 11.7084 16.5825 11.7084C20.8022 11.7084 25.0959 11.7084 29.2415 11.7084C31.5364 17.4826 28.1311 25.1076 21.9126 28.2909C15.102 31.8443 6.88473 29.6974 2.51702 23.3309C-1.70264 17.0385 -0.518171 8.45109 5.33012 3.56517C11.1044 -1.32075 19.4697 -1.17269 24.7257 3.93531Z" fill="#E5E5E5"/>
<path d="M38.4951 15.0397C36.5703 15.0397 35.1638 15.0397 33.5352 15.0397C33.5352 13.9292 33.5352 12.9669 33.5352 11.7824C35.0157 11.7824 36.4963 11.7824 38.199 11.7824C38.199 10.0797 38.199 8.59915 38.199 6.89648C39.4575 6.89648 40.4199 6.89648 41.6043 6.89648C41.6043 8.37707 41.6043 9.85765 41.6043 11.5603C43.381 11.6343 44.9356 11.7084 46.5643 11.7824C46.5643 12.8188 46.5643 13.7072 46.5643 14.8916C45.0837 14.8916 43.5291 14.8916 41.7524 14.8916C41.7524 16.6683 41.7524 18.2229 41.7524 19.8516C40.5679 19.8516 39.6796 19.8516 38.4951 19.8516C38.4951 18.445 38.4951 16.8904 38.4951 15.0397Z" fill="#E5E5E5"/>
</svg>
