<svg width="32" height="30" viewBox="0 0 32 30" fill="none" xmlns="http://www.w3.org/2000/svg">
<path d="M16.6745 29.9999C14.4205 29.9999 12.241 29.9999 10.0019 29.9999C10.0019 29.776 10.0019 29.5819 10.0019 29.373C10.0019 22.7749 10.0019 16.162 9.98694 9.56395C9.98694 9.01162 10.1511 8.87727 10.6736 8.8922C12.4649 8.92206 14.2563 8.90713 16.0476 8.90713C16.2267 8.90713 16.4208 8.90713 16.6447 8.90713C16.6447 9.81772 16.6447 10.6984 16.6447 11.7285C16.8835 11.4896 17.0179 11.3702 17.1522 11.2358C20.093 8.36973 25.1982 8.11596 28.2136 10.6835C29.9602 12.1763 30.7215 14.1617 30.9902 16.371C31.0797 17.1323 31.0947 17.8936 31.0947 18.6549C31.1096 22.2226 31.0947 25.7754 31.0947 29.3431C31.0947 29.5372 31.0947 29.7461 31.0947 29.985C28.8704 29.985 26.691 29.985 24.422 29.985C24.422 29.776 24.422 29.567 24.422 29.3431C24.422 25.9993 24.422 22.6704 24.422 19.3266C24.422 18.7445 24.3921 18.1623 24.2727 17.61C23.8697 15.5649 22.4366 14.4005 20.4214 14.4304C18.4957 14.4602 17.1373 15.6544 16.779 17.6995C16.6895 18.1772 16.6596 18.6698 16.6596 19.1475C16.6447 22.5361 16.6596 25.9396 16.6596 29.3282C16.6745 29.5372 16.6745 29.7461 16.6745 29.9999Z" fill="#E5E5E5"/>
<path d="M6.62827 29.9999C4.4339 29.9999 2.25446 29.9999 0.045166 29.9999C0.045166 22.9839 0.045166 15.9829 0.045166 8.93701C2.23953 8.93701 4.40404 8.93701 6.62827 8.93701C6.62827 15.9381 6.62827 22.9392 6.62827 29.9999Z" fill="#E5E5E5"/>
<path d="M3.44863 5.57822C2.47833 5.54836 1.65731 5.3543 0.970634 4.78705C-0.492277 3.57791 -0.268362 1.38354 1.41846 0.487883C2.59775 -0.139078 3.85167 -0.154006 5.07574 0.398318C6.16546 0.89093 6.79242 2.02543 6.64315 3.10022C6.47894 4.33922 5.56835 5.23488 4.23979 5.48865C3.95617 5.53343 3.65761 5.56329 3.44863 5.57822Z" fill="#E5E5E5"/>
</svg>
