<svg width="38" height="30" viewBox="0 0 38 30" fill="none" xmlns="http://www.w3.org/2000/svg">
<path d="M18.5241 0C22.8289 0.174864 26.7823 0.324748 30.7231 0.512103C31.5138 0.549573 32.317 0.661986 33.1077 0.81187C35.2036 1.19907 36.672 2.62296 36.9983 4.78379C37.287 6.74477 37.4501 8.74321 37.5631 10.7417C37.7764 14.2889 37.7137 17.8237 37.4627 21.3709C37.3623 22.8323 37.1991 24.2936 36.923 25.73C36.5214 27.7909 35.0028 29.2148 32.8943 29.4272C30.2713 29.7019 27.6483 29.9393 25.0127 29.9767C20.0302 30.0392 15.0351 29.9642 10.0526 29.8893C8.44616 29.8643 6.82716 29.7019 5.22071 29.5146C2.45963 29.1774 0.966132 27.691 0.57707 24.9307C-0.0127984 20.7089 -0.0881007 16.4622 0.0750543 12.2155C0.162907 9.89232 0.363713 7.58162 0.58962 5.25842C0.765326 3.43483 1.6062 1.94849 3.35071 1.21156C4.20413 0.849341 5.15796 0.661986 6.08669 0.612025C10.3538 0.362219 14.6084 0.187355 18.5241 0ZM15.1104 21.5833C18.8755 19.4224 22.5904 17.2866 26.3807 15.1008C22.5779 12.915 18.863 10.7791 15.1104 8.6308C15.1104 12.9774 15.1104 17.2491 15.1104 21.5833Z" fill="#E5E5E5"/>
</svg>
