<svg width="30" height="34" viewBox="0 0 30 34" fill="none" xmlns="http://www.w3.org/2000/svg">
<path d="M21.6913 3.23175C21.6913 2.11952 21.6913 1.09124 21.6913 0C22.7956 0 23.8166 0 24.9627 0C24.9627 1.07026 24.9627 2.11952 24.9627 3.31569C25.6086 3.31569 26.1712 3.29471 26.713 3.31569C28.5466 3.37865 29.9844 4.7427 29.9844 6.58941C30.0052 14.5009 30.0052 22.3914 29.9844 30.3029C29.9844 32.0867 28.5466 33.5137 26.7755 33.5137C18.92 33.5347 11.0853 33.5347 3.22973 33.5137C1.39608 33.5137 0.020837 32.0657 0 30.198C0 22.3704 0 14.5219 0.020837 6.69434C0.020837 4.72171 1.43775 3.35766 3.39642 3.31569C3.87567 3.29471 4.35492 3.31569 4.95919 3.31569C4.95919 2.20347 4.95919 1.1542 4.95919 0.0209854C6.12606 0.0209854 7.16791 0.0209854 8.31394 0.0209854C8.31394 1.09124 8.31394 2.11952 8.31394 3.23175C12.7731 3.23175 17.1488 3.23175 21.6913 3.23175ZM3.41726 11.7308C3.41726 17.8586 3.41726 23.9653 3.41726 30.0931C11.1686 30.0931 18.8783 30.0931 26.588 30.0931C26.588 23.9233 26.588 17.8376 26.588 11.7308C18.8366 11.7308 11.1686 11.7308 3.41726 11.7308Z" fill="#E5E5E5"/>
<path d="M15.0443 26.7144C15.0443 23.9653 15.0443 21.2582 15.0443 18.4671C17.7947 18.4671 20.5035 18.4671 23.2748 18.4671C23.2748 21.1952 23.2748 23.9234 23.2748 26.7144C20.5869 26.7144 17.8781 26.7144 15.0443 26.7144Z" fill="#E5E5E5"/>
</svg>
