<?xml version="1.0" encoding="iso-8859-1"?>
<!-- Generator: Adobe Illustrator 19.0.0, SVG Export Plug-In . SVG Version: 6.00 Build 0)  -->
<svg version="1.1" id="Layer_1" xmlns="http://www.w3.org/2000/svg" xmlns:xlink="http://www.w3.org/1999/xlink" x="0px" y="0px"
	 viewBox="0 0 311.112 311.112" style="enable-background:new 0 0 311.112 311.112;" xml:space="preserve">
<g>
	<g>
		<g>
			<path d="M237.888,188.533l-43.444-9.656V165.15c16.789-12.117,27.778-31.794,27.778-54.039V76.989
				c9.556-2.483,16.667-11.106,16.667-21.433V44.444c0-12.256-9.967-22.222-22.222-22.222h-5.556c-1.85,0-3.606,0.372-5.272,0.933
				C193.143,8.433,175.116,0,155.555,0c-19.561,0-37.589,8.433-50.283,23.156c-1.667-0.561-3.422-0.933-5.272-0.933h-5.556
				c-12.256,0-22.222,9.967-22.222,22.222v11.111c0,10.328,7.111,18.95,16.667,21.433v34.122c0,22.244,10.989,41.922,27.778,54.039
				v13.728l-43.444,9.65c-33.3,7.406-56.556,36.389-56.556,70.506v52.078h277.778v-52.078
				C294.443,224.917,271.188,195.933,237.888,188.533z M72.221,300H27.777v-40.967c0-27.678,18.117-51.322,44.444-58.739V300z
				 M199.321,191.344l-8.478,38.144l-26.2-18.711l25.711-21.428L199.321,191.344z M155.555,203.883l-27.778-23.15v-9.094
				c8.466,3.9,17.855,6.139,27.778,6.139c9.922,0,19.311-2.239,27.778-6.139v9.094L155.555,203.883z M205.554,38.889
				c0-0.828,0.206-1.617,0.561-2.339c0.061-0.133,0.172-0.233,0.244-0.356c0.333-0.572,0.756-1.106,1.294-1.544
				c0.956-0.783,2.128-1.317,3.456-1.317h5.556c6.128,0,11.112,4.984,11.112,11.111v11.111c0,6.128-4.983,11.111-11.111,11.111
				h-5.556c-3.061,0-5.556-2.489-5.556-5.556V38.889z M94.442,66.666c-6.126,0.001-11.11-4.983-11.11-11.11V44.444
				c0-6.128,4.983-11.111,11.111-11.111h5.556c1.328,0,2.5,0.533,3.461,1.311c0.539,0.439,0.961,0.967,1.294,1.544
				c0.072,0.128,0.178,0.228,0.244,0.356c0.35,0.728,0.556,1.517,0.556,2.344V61.11c0,3.067-2.494,5.556-5.556,5.556H94.442z
				 M99.999,111.111V77.778c9.189,0,16.667-7.478,16.667-16.667V38.889c0-1.022-0.122-2.017-0.306-3
				c-0.05-0.278-0.117-0.544-0.178-0.817c-0.178-0.744-0.4-1.467-0.672-2.172c-0.089-0.233-0.161-0.467-0.261-0.694
				c-0.356-0.806-0.761-1.589-1.244-2.328c10.561-11.978,25.467-18.767,41.55-18.767s30.989,6.789,41.55,18.772
				c-0.483,0.739-0.889,1.522-1.244,2.328c-0.1,0.222-0.172,0.456-0.261,0.689c-0.278,0.706-0.5,1.433-0.678,2.172
				c-0.067,0.272-0.128,0.539-0.178,0.817c-0.178,0.983-0.3,1.978-0.3,3v22.222c0,9.189,7.478,16.667,16.667,16.667v33.333
				c0,30.633-24.922,55.556-55.556,55.556C124.921,166.667,99.999,141.744,99.999,111.111z M120.76,189.35l25.711,21.428
				l-26.2,18.711l-8.478-38.144L120.76,189.35z M94.443,300H83.332V197.667l11.111-2.472V300z M205.555,300h-100v-85.5l7.511,33.794
				l42.489-30.356l42.489,30.356l7.511-33.794V300z M227.777,300h-11.111V195.2l11.111,2.472V300z M283.332,300h-44.444v-99.706
				c26.328,7.417,44.444,31.067,44.444,58.739V300z"/>
			<path d="M166.666,130.556c0,7.661,6.233,13.889,13.889,13.889h8.333v-11.111h-8.333c-1.533,0-2.778-1.25-2.778-2.778
				c0-7.661-6.233-13.889-13.889-13.889h-8.333h-8.333c-7.656,0-13.889,6.228-13.889,13.889c0,1.528-1.244,2.778-2.778,2.778h-8.333
				v11.111h8.333c7.656,0,13.889-6.228,13.889-13.889c0-1.528,1.244-2.778,2.778-2.778h8.333h8.333
				C165.421,127.778,166.666,129.028,166.666,130.556z"/>
			<path d="M149.716,83.333h11.672c1.361,9.4,9.394,16.667,19.161,16.667c10.722,0,19.444-8.722,19.444-19.444
				c0-10.722-8.717-19.444-19.439-19.444c-7.728,0-14.361,4.567-17.494,11.111h-15.011c-3.133-6.544-9.767-11.111-17.494-11.111
				c-10.722,0-19.444,8.722-19.444,19.444c0,10.722,8.721,19.444,19.444,19.444C140.321,100,148.355,92.733,149.716,83.333z
				 M180.555,72.222c4.594,0,8.333,3.739,8.333,8.333s-3.739,8.333-8.333,8.333c-4.594,0-8.333-3.739-8.333-8.333
				S175.96,72.222,180.555,72.222z M122.221,80.556c0-4.594,3.739-8.333,8.333-8.333s8.333,3.739,8.333,8.333
				c0,4.594-3.739,8.333-8.333,8.333S122.221,85.15,122.221,80.556z"/>
			<circle cx="155.555" cy="238.889" r="5.556"/>
			<circle cx="155.555" cy="261.111" r="5.556"/>
			<circle cx="155.555" cy="283.333" r="5.556"/>
		</g>
	</g>
</g>
<g>
</g>
<g>
</g>
<g>
</g>
<g>
</g>
<g>
</g>
<g>
</g>
<g>
</g>
<g>
</g>
<g>
</g>
<g>
</g>
<g>
</g>
<g>
</g>
<g>
</g>
<g>
</g>
<g>
</g>
</svg>
