<svg width="32" height="32" viewBox="0 0 32 32" fill="none" xmlns="http://www.w3.org/2000/svg">
<path fill-rule="evenodd" clip-rule="evenodd" d="M16 32C24.8369 32 32 24.8365 32 16C32 7.16345 24.8369 0 16 0C7.16309 0 0 7.16345 0 16C0 24.8365 7.16309 32 16 32ZM16 14.6L20.2998 10.3C20.5996 9.90002 21.2002 9.90002 21.5996 10.3L21.7002 10.4C22.0996 10.7 22.0996 11.3 21.7002 11.7L17.4004 16L21.5996 20.2C22 20.6 22 21.2 21.5996 21.6C21.3662 21.8337 21.0645 21.9309 20.7744 21.8915C20.5674 21.8634 20.3662 21.7662 20.2002 21.6L16 17.4L11.7002 21.7C11.4004 22.1 10.7998 22.1 10.4004 21.7L10.2998 21.6C9.90039 21.3 9.90039 20.7 10.2998 20.3L14.5996 16L10.2998 11.7C10.0811 11.4811 9.98242 11.2021 10.0029 10.929C10.0205 10.7031 10.1191 10.4811 10.2998 10.3C10.7002 9.90002 11.2998 9.90002 11.7002 10.3L16 14.6Z" fill="white" fill-opacity="0.81"/>
</svg>
