<svg width="14" height="30" viewBox="0 0 14 30" fill="none" xmlns="http://www.w3.org/2000/svg">
<path d="M8.97738 15.0287C8.97738 20.0416 8.97738 25.0006 8.97738 30C7.29748 30 5.67134 30 3.99144 30C3.99144 25.0275 3.99144 20.055 3.99144 15.0422C2.63408 15.0422 1.34392 15.0422 0 15.0422C0 13.3488 0 11.7093 0 10.0294C1.31704 10.0294 2.6072 10.0294 3.978 10.0294C3.978 9.43804 3.95112 8.88703 3.978 8.33603C4.0452 7.1265 3.99144 5.90353 4.24678 4.73432C4.98594 1.30733 7.56626 -0.412888 11.0739 0.0843625C11.9071 0.205315 12.7269 0.500977 13.5333 0.742883C13.8558 0.836957 13.9768 1.06542 13.9768 1.42828C13.9499 2.59749 13.9633 3.7667 13.9633 5.01655C13.3989 5.01655 12.8882 5.01655 12.3775 5.01655C11.9743 5.01655 11.5711 5.04342 11.168 5.05686C9.51495 5.15094 8.96394 5.71538 8.96394 7.38184C8.96394 8.24195 8.96394 9.08862 8.96394 10.0025C10.6438 10.0025 12.2834 10.0025 13.9633 10.0025C13.6408 11.6421 13.3317 13.2145 12.9957 14.7868C12.9688 14.8944 12.7269 15.0153 12.5925 15.0153C11.5846 15.0287 10.5766 15.0287 9.5687 15.0287C9.39399 15.0287 9.20585 15.0287 8.97738 15.0287Z" fill="#E5E5E5"/>
</svg>
