<?xml version="1.0" encoding="iso-8859-1"?>
<!-- Generator: Adobe Illustrator 19.0.0, SVG Export Plug-In . SVG Version: 6.00 Build 0)  -->
<svg version="1.1" id="Layer_1" xmlns="http://www.w3.org/2000/svg" xmlns:xlink="http://www.w3.org/1999/xlink" x="0px" y="0px"
	 viewBox="0 0 512 512" style="enable-background:new 0 0 512 512;" xml:space="preserve">
<g>
	<g>
		<path d="M256,0C115.314,0,0,114.367,0,256c0,141.158,114.842,256,256,256c141.021,0,256-114.685,256-256
			C512,114.842,397.158,0,256,0z M256,478.609c-122.746,0-222.609-99.862-222.609-222.609c0-55.377,20.331-106.092,53.914-145.084
			l94.997,94.997H89.044c-9.22,0-16.696,7.475-16.696,16.696v66.783c0,9.22,7.475,16.696,16.696,16.696h193.432l118.608,118.608
			C362.092,458.278,311.377,478.609,256,478.609z M172.522,239.304v33.391h-66.783v-33.391H172.522z M205.913,272.696v-33.391h9.78
			l33.391,33.391H205.913z M262.915,239.304h143.346v33.391H296.307L262.915,239.304z M424.695,401.084l-94.997-94.997h93.259
			c9.22,0,16.696-7.475,16.696-16.696v-66.783c0-9.22-7.475-16.696-16.696-16.696H229.524L110.916,87.305
			C149.908,53.722,200.623,33.391,256,33.391c122.746,0,222.609,99.862,222.609,222.609
			C478.609,311.377,458.278,362.092,424.695,401.084z"/>
	</g>
</g>
<g>
</g>
<g>
</g>
<g>
</g>
<g>
</g>
<g>
</g>
<g>
</g>
<g>
</g>
<g>
</g>
<g>
</g>
<g>
</g>
<g>
</g>
<g>
</g>
<g>
</g>
<g>
</g>
<g>
</g>
</svg>
