<svg width="92" height="20" viewBox="0 0 92 20" fill="none" xmlns="http://www.w3.org/2000/svg">
<path d="M20 6.21434C19.7667 6.4347 19.5335 6.65506 19.3069 6.8821C19.0803 7.10914 18.867 7.34953 18.6271 7.60995C16.1946 5.25277 13.3356 4.01074 9.99 4.01074C6.65778 4.01074 3.81206 5.25277 1.44618 7.54318C0.973009 7.07575 0.519827 6.62167 0 6.10082C0.71976 5.53991 1.41953 4.90553 2.19927 4.38468C7.75075 0.698658 14.9084 1.33971 19.7467 5.93388C19.8267 6.00734 19.9134 6.07411 20 6.14089C20 6.1676 20 6.18763 20 6.21434Z" fill="#E5E5E5"/>
<path d="M9.66998 17.8335C9.58334 17.7934 9.4967 17.7467 9.4034 17.7066C8.69697 17.4061 8.30376 16.6649 8.45038 15.9104C8.597 15.1625 9.25678 14.6216 10.0232 14.6216C10.7829 14.6283 11.4427 15.1758 11.5827 15.9237C11.7226 16.6716 11.3161 17.4128 10.603 17.7066C10.5097 17.7467 10.4231 17.7868 10.3298 17.8268C10.1098 17.8335 9.8899 17.8335 9.66998 17.8335Z" fill="#E5E5E5"/>
<path d="M4.25845 10.3677C3.78527 9.90022 3.33209 9.45283 2.87891 8.99875C6.32442 5.2593 13.0089 4.76516 17.1142 8.95868C16.6543 9.41276 16.1878 9.86684 15.7146 10.3343C14.1551 8.83849 12.2425 7.99711 9.98987 8.00379C7.74395 8.01047 5.83792 8.84517 4.25845 10.3677Z" fill="#E5E5E5"/>
<path d="M14.335 11.8104C13.8619 12.2778 13.4087 12.7319 12.9555 13.1793C11.1761 11.4966 8.61029 11.6769 7.0708 13.1726C6.61762 12.7186 6.16444 12.2712 5.70459 11.8171C7.53065 9.67358 11.7226 9.1327 14.335 11.8104Z" fill="#E5E5E5"/>
<path d="M42.2846 17.353C42.154 17.3571 42.0724 17.3041 42.001 17.2329C41.4908 16.734 40.9766 16.2392 40.4705 15.7383C39.8991 15.1722 39.3359 14.596 38.7604 14.034C38.6318 13.9077 38.5992 13.7754 38.6502 13.6268C38.7624 13.2908 38.8747 12.9507 39.0155 12.6249C39.9215 10.5175 41.1806 8.63397 42.6948 6.91745C44.1008 5.3231 45.6966 3.94663 47.4924 2.80839C48.1291 2.40522 48.7944 2.05092 49.4453 1.67218C49.5127 1.63349 49.5412 1.66811 49.5821 1.7068C50.2187 2.34209 50.8575 2.97739 51.4942 3.61472C52.4267 4.54527 53.3593 5.47785 54.294 6.40636C54.3531 6.46541 54.3572 6.5041 54.3205 6.5774C53.5246 8.1351 52.5594 9.57877 51.4207 10.9064C50.7003 11.7453 49.9188 12.5252 49.0964 13.2643C47.2108 14.9584 45.0967 16.2962 42.7295 17.2227C42.607 17.2716 42.4805 17.3103 42.354 17.351C42.3234 17.353 42.2907 17.351 42.2846 17.353ZM43.6315 11.1222C43.5641 11.8634 44.2518 12.3765 44.8559 12.3724C45.5354 12.3663 46.1027 11.8064 46.1007 11.1243C46.0986 10.5521 45.7007 9.88013 44.7579 9.89439C44.1478 9.90457 43.6315 10.4584 43.6315 11.1222ZM48.3944 8.8152C49.1127 8.89054 49.6474 8.16565 49.6412 7.59754C49.6372 7.01723 49.129 6.34731 48.3597 6.35342C47.7455 6.35749 47.1292 6.91745 47.1557 7.60773C47.1822 8.31633 47.674 8.8152 48.3944 8.8152Z" fill="#E5E5E5"/>
<path d="M54.7653 5.61827C53.2981 4.17256 51.8288 2.72686 50.3452 1.26486C50.6289 1.15287 50.8942 1.04291 51.1635 0.941104C52.1492 0.564406 53.1613 0.29359 54.2 0.13273C54.6184 0.0675711 55.0428 0.0248108 55.4673 0.00241249C55.8836 -0.0199858 56.0019 0.110331 55.9999 0.52979C55.9958 1.24246 55.8713 1.93885 55.7183 2.63319C55.4918 3.6574 55.1734 4.65515 54.7571 5.61827C54.751 5.63049 54.7449 5.64271 54.7388 5.65289C54.7469 5.64067 54.7571 5.62845 54.7653 5.61827Z" fill="#E5E5E5"/>
<path d="M42.9703 5.98269C42.9295 6.03156 42.8928 6.08247 42.8479 6.12726C41.6255 7.39989 40.5888 8.80895 39.7073 10.3341C39.3971 10.8716 39.1196 11.4255 38.8318 11.9752C38.7869 12.0608 38.7441 12.0811 38.6502 12.0547C37.8666 11.8307 37.083 11.6148 36.2994 11.3929C36.0504 11.3216 35.9382 11.0834 36.0341 10.839C36.0647 10.7617 36.1075 10.6863 36.1524 10.6151C37.1871 9.00239 38.54 7.72772 40.246 6.84604C41.0643 6.42251 41.9275 6.12319 42.8377 5.96029C42.8764 5.95419 42.9152 5.95418 42.954 5.95215C42.9601 5.96233 42.9642 5.97251 42.9703 5.98269Z" fill="#E5E5E5"/>
<path d="M43.9009 17.188C45.0192 16.6504 46.0946 16.0457 47.117 15.3452C48.1373 14.6468 49.0883 13.8608 49.9984 13.0239C50.0106 13.0321 50.0249 13.0402 50.0372 13.0484C50.029 13.1156 50.0229 13.1828 50.0106 13.2499C49.7066 14.8484 48.9944 16.2513 47.9741 17.5056C47.2292 18.4219 46.3538 19.1936 45.3498 19.8187C45.2702 19.8697 45.1865 19.9165 45.0988 19.9511C44.9212 20.0203 44.7498 19.9613 44.6723 19.7882C44.5947 19.6151 44.5294 19.4359 44.4763 19.2547C44.2825 18.5807 44.0947 17.9047 43.905 17.2307C43.9029 17.2226 43.9029 17.2124 43.9009 17.188Z" fill="#E5E5E5"/>
<path d="M41.2336 17.701C41.0968 17.8049 40.9642 17.923 40.8152 18.0146C40.2316 18.3771 39.6092 18.6682 38.9705 18.9167C38.0481 19.2771 37.1175 19.613 36.189 19.9592C36.1462 19.9755 36.0992 19.9836 36.0339 19.9999C36.1094 19.782 36.1747 19.5845 36.2462 19.3891C36.6727 18.2162 37.1032 17.0434 37.6563 15.9214C37.8338 15.563 38.0175 15.2067 38.2889 14.9053C38.3134 14.8789 38.3399 14.8524 38.3583 14.832C39.3112 15.785 40.2622 16.7318 41.2336 17.701Z" fill="#E5E5E5"/>
<path d="M73.9769 1C74.2521 1 74.4523 1 74.6525 1C79.6574 1 84.6622 1 89.6671 1C91.2311 1 91.9944 1.76409 91.9944 3.35491C91.9944 4.20668 92.0069 5.07098 91.9944 5.92276C91.9819 7.17537 91.1561 8.00209 89.9174 8.01461C89.2917 8.02714 88.6786 8.01461 88.003 8.01461C88.003 8.99165 88.003 9.89353 88.003 10.8079C87.9905 13.3132 86.3013 15.0167 83.8114 15.0292C81.9346 15.0292 80.0578 15.0418 78.1809 15.0292C75.716 15.0167 74.0019 13.3257 74.0019 10.8706C73.9643 7.60125 73.9769 4.35699 73.9769 1ZM88.0405 3.0167C88.0405 3.99374 88.0405 4.9833 88.0405 5.97286C88.6912 5.97286 89.3168 5.97286 89.9424 5.97286C89.9424 4.97077 89.9424 3.99374 89.9424 3.0167C89.2917 3.0167 88.6912 3.0167 88.0405 3.0167Z" fill="#E5E5E5"/>
<path d="M89.955 17.0708C89.955 17.7222 89.955 18.3485 89.955 18.9998C83.9616 18.9998 77.9933 18.9998 72 18.9998C72 18.3485 72 17.7347 72 17.0708C77.9683 17.0708 83.9366 17.0708 89.955 17.0708Z" fill="#E5E5E5"/>
</svg>
