<svg width="37" height="30" viewBox="0 0 37 30" fill="none" xmlns="http://www.w3.org/2000/svg">
<path d="M0 26.603C3.8403 26.9989 7.36387 26.1279 10.541 23.9306C10.7093 23.8118 10.8775 23.6831 11.1151 23.505C7.64101 23.1883 5.34475 21.4364 4.05805 18.1998C5.20618 18.3978 6.27513 18.378 7.38367 18.1009C3.64235 16.9626 1.65291 14.4981 1.39557 10.5489C2.49422 11.0933 3.54337 11.4496 4.73109 11.4793C1.40547 8.67826 0.663145 5.35264 2.47442 1.35398C6.61165 6.22364 11.7782 8.86632 18.1128 9.31171C18.0633 8.9554 18.0039 8.64857 17.9742 8.33184C17.608 4.11543 20.5278 0.492882 24.7244 0.047487C27.0504 -0.199955 29.0992 0.522576 30.7917 2.14579C30.9896 2.33385 31.1579 2.37344 31.4053 2.31406C32.9296 1.95774 34.3746 1.40347 35.7702 0.651245C35.2357 2.35365 34.1767 3.65024 32.7316 4.71919C33.177 4.64001 33.6323 4.57073 34.0777 4.47175C34.5429 4.36287 35.0081 4.2342 35.4733 4.08574C35.9187 3.94717 36.3443 3.76901 36.8491 3.59086C35.9286 4.96663 34.8695 6.11476 33.6125 7.06494C33.2166 7.36187 33.1176 7.6687 33.1077 8.14379C32.989 15.7551 29.9504 21.9016 23.7346 26.3654C20.8346 28.4538 17.5288 29.5327 13.9755 29.8791C9.02668 30.374 4.41436 29.3545 0.178158 26.7316C0.12867 26.7019 0.0692838 26.692 0.00989768 26.6821C0 26.6524 0 26.6228 0 26.603Z" fill="#E5E5E5"/>
</svg>
